<svg width="40" height="40" viewBox="0 0 40 40" fill="none" xmlns="http://www.w3.org/2000/svg">
<g id="Corner">
<path id="Subtract (Stroke)" d="M28.2727 10.8372C28.322 11.3069 28.6931 11.678 29.1628 11.7273C34.6909 12.3075 39 16.9845 39 22.6667V38.8571C39 38.936 38.936 39 38.8571 39C35.6223 39 33 36.3777 33 33.1429V22.6667C33 19.9052 30.7614 17.6667 28 17.6667H26.6667C24.2734 17.6667 22.3333 15.7266 22.3333 13.3333V12C22.3333 9.23858 20.0948 7 17.3333 7H6.85714C3.62233 7 1 4.37767 1 1.14286C1 1.06396 1.06396 1 1.14286 1H17.3333C23.0155 1 27.6925 5.30914 28.2727 10.8372Z" fill="#FFDEA8" stroke="#FDBC2D" strokeWidth="2" strokeLinecap="square" strokeLinejoin="round"/>
</g>
</svg>
