<svg width="40" height="40" viewBox="0 0 40 40" fill="none" xmlns="http://www.w3.org/2000/svg">
<g id="Corner">
<path id="Subtract (Stroke)" d="M10.8372 11.7273C11.3069 11.678 11.678 11.3069 11.7273 10.8372C12.3075 5.30914 16.9845 1 22.6667 1H38.8571C38.936 1 39 1.06396 39 1.14286C39 4.37767 36.3777 7 33.1429 7H22.6667C19.9052 7 17.6667 9.23858 17.6667 12V13.3333C17.6667 15.7266 15.7266 17.6667 13.3333 17.6667H12C9.23858 17.6667 7 19.9052 7 22.6667V33.1429C7 36.3777 4.37767 39 1.14286 39C1.06396 39 1 38.936 1 38.8571V22.6667C1 16.9845 5.30914 12.3075 10.8372 11.7273Z" fill="#FFDEA8" stroke="#FDBC2D" strokeWidth="2" strokeLinecap="square" strokeLinejoin="round"/>
</g>
</svg>
