<svg width="16" height="16" viewBox="0 0 16 16" fill="none" xmlns="http://www.w3.org/2000/svg">
<g id="Arrow_down_circle">
<g id="Vector">
<path d="M14.6663 8.00016C14.6663 11.6735 11.673 14.6668 7.99967 14.6668C4.31967 14.6668 1.33301 11.6735 1.33301 8.00016L1.33557 7.81365C1.43445 4.21978 4.38205 1.3335 7.99967 1.3335C11.673 1.3335 14.6663 4.32016 14.6663 8.00016ZM10.813 7.04016C10.813 6.90683 10.7663 6.78016 10.6663 6.68016C10.4663 6.48683 10.153 6.48683 9.95967 6.68683L7.99967 8.6535L6.03967 6.68683C5.84634 6.48683 5.52634 6.48683 5.33301 6.68016C5.13301 6.88016 5.13301 7.1935 5.33301 7.38683L7.64634 9.7135C7.73967 9.80683 7.86634 9.86016 7.99967 9.86016C8.13301 9.86016 8.25967 9.80683 8.35301 9.7135L10.6663 7.38683C10.7663 7.2935 10.813 7.16683 10.813 7.04016Z" fill="#7F7574"/>
<path d="M14.6663 8.00016C14.6663 11.6735 11.673 14.6668 7.99967 14.6668C4.31967 14.6668 1.33301 11.6735 1.33301 8.00016L1.33557 7.81365C1.43445 4.21978 4.38205 1.3335 7.99967 1.3335C11.673 1.3335 14.6663 4.32016 14.6663 8.00016ZM10.813 7.04016C10.813 6.90683 10.7663 6.78016 10.6663 6.68016C10.4663 6.48683 10.153 6.48683 9.95967 6.68683L7.99967 8.6535L6.03967 6.68683C5.84634 6.48683 5.52634 6.48683 5.33301 6.68016C5.13301 6.88016 5.13301 7.1935 5.33301 7.38683L7.64634 9.7135C7.73967 9.80683 7.86634 9.86016 7.99967 9.86016C8.13301 9.86016 8.25967 9.80683 8.35301 9.7135L10.6663 7.38683C10.7663 7.2935 10.813 7.16683 10.813 7.04016Z" fill="black" fill-opacity="0.2"/>
</g>
</g>
</svg>
