<svg xmlns="http://www.w3.org/2000/svg" viewBox="0 0 300 500" role="img" aria-labelledby="title desc">
  <title id="title">Banner TNMath</title>
  <desc id="desc">Banner minh họa hệ thống học Toán K-12 TNMath.</desc>
  <defs>
    <linearGradient id="bg" x1="0" x2="0" y1="0" y2="1">
      <stop offset="0" stop-color="#60c4ff"/>
      <stop offset="1" stop-color="#87e0ac"/>
    </linearGradient>
  </defs>
  <rect width="300" height="500" rx="26" fill="url(#bg)"/>
  <circle cx="35" cy="44" r="26" fill="#dff7ff"/>
  <circle cx="274" cy="62" r="24" fill="#dff7ff"/>
  <text x="150" y="70" text-anchor="middle" font-size="24" font-weight="900" font-family="Trebuchet MS, Segoe UI, sans-serif" fill="#ff8d1d">Hệ thống học Toán K-12</text>
  <text x="150" y="100" text-anchor="middle" font-size="28" font-weight="900" font-family="Trebuchet MS, Segoe UI, sans-serif" fill="#ff8d1d">TNMath</text>
  <g font-family="Trebuchet MS, Segoe UI, sans-serif" font-weight="800" font-size="16">
    <rect x="66" y="132" width="168" height="34" rx="17" fill="#1996e7"/>
    <text x="150" y="154" text-anchor="middle" fill="#fff">Giúp bạn hết sợ Toán</text>
    <rect x="85" y="184" width="130" height="34" rx="17" fill="#1996e7"/>
    <text x="150" y="206" text-anchor="middle" fill="#fff">Học giỏi Toán</text>
    <rect x="54" y="236" width="192" height="34" rx="17" fill="#1996e7"/>
    <text x="150" y="258" text-anchor="middle" fill="#fff">Chinh phục mọi mục tiêu</text>
  </g>
  <path d="M56 365c48-55 142-59 191-8l-10 68H70Z" fill="#ffe482"/>
  <circle cx="114" cy="336" r="34" fill="#c97626"/>
  <circle cx="190" cy="336" r="34" fill="#c97626"/>
  <circle cx="150" cy="335" r="64" fill="#ffb12d"/>
  <circle cx="128" cy="328" r="8" fill="#3b280f"/>
  <circle cx="172" cy="328" r="8" fill="#3b280f"/>
  <path d="M132 355c11 9 25 9 36 0" fill="none" stroke="#3b280f" stroke-width="5" stroke-linecap="round"/>
  <path d="M100 301c-10-7-17-19-18-32 17 5 30 14 39 28Z" fill="#8c4c12"/>
  <path d="M200 301c10-7 17-19 18-32-17 5-30 14-39 28Z" fill="#8c4c12"/>
  <rect x="78" y="403" width="144" height="42" rx="20" fill="#ff7f23"/>
  <text x="150" y="430" text-anchor="middle" font-size="24" font-weight="900" font-family="Trebuchet MS, Segoe UI, sans-serif" fill="#fff">Tham gia ngay</text>
</svg>
