<svg xmlns="http://www.w3.org/2000/svg" width="24" height="24" fill="none"><path fill="#5E5E5E" fill-rule="evenodd" d="m13.709 12.795-.141.079c-.648.362-.877.548-.872.866a.751.751 0 0 1-.74.76h-.01a.75.75 0 0 1-.75-.74c-.017-1.268 1.02-1.848 1.639-2.194l.141-.08c.569-.313.853-.747.853-1.293a1.64 1.64 0 0 0-1.638-1.637 1.62 1.62 0 0 0-1.639 1.637.75.75 0 0 1-1.5 0 3.141 3.141 0 0 1 3.139-3.137 3.141 3.141 0 0 1 3.138 3.137c0 1.103-.576 2.027-1.62 2.602Zm-1.762 4.165a.738.738 0 0 1-.75-.735v-.03a.75.75 0 0 1 1.5 0 .763.763 0 0 1-.75.765ZM12 2.5c-5.239 0-9.5 4.262-9.5 9.5s4.261 9.5 9.5 9.5c5.238 0 9.5-4.262 9.5-9.5S17.238 2.5 12 2.5Z" clip-rule="evenodd"/></svg>