<svg xmlns="http://www.w3.org/2000/svg" width="24" height="24" fill="none"><path fill="#5E5E5E" fill-rule="evenodd" d="M15.47 12.36h-3.99c-.41 0-.75-.34-.75-.75s.34-.75.75-.75h3.99c.41 0 .75.34.75.75s-.34.75-.75.75Zm0 4.82h-3.99c-.41 0-.75-.34-.75-.75s.34-.75.75-.75h3.99c.41 0 .75.34.75.75s-.34.75-.75.75Zm-6.66-4.82h-.29c-.41 0-.75-.34-.75-.75s.34-.75.75-.75h.29c.41 0 .75.34.75.75s-.34.75-.75.75Zm0 4.82h-.29c-.41 0-.75-.34-.75-.75s.34-.75.75-.75h.29c.41 0 .75.34.75.75s-.34.75-.75.75Zm8.083-12.798c-.12-.035-.238.054-.256.178a2.482 2.482 0 0 1-2.447 2.12H9.81a2.493 2.493 0 0 1-2.457-2.12c-.018-.124-.136-.213-.256-.177A4.252 4.252 0 0 0 4.07 8.46v8.9c0 2.34 1.9 4.25 4.25 4.25h7.36c2.35 0 4.25-1.91 4.25-4.25v-8.9a4.25 4.25 0 0 0-3.037-4.079Z" clip-rule="evenodd"/><path fill="currentColor" fill-rule="evenodd" d="M9.807 5.48h4.38c.68 0 1.24-.54 1.26-1.22.01-.02.01-.04.01-.06v-.54c0-.7-.57-1.27-1.27-1.27h-4.38c-.7 0-1.28.57-1.28 1.27v.54c0 .02 0 .03.01.05.02.69.59 1.23 1.27 1.23Z" clip-rule="evenodd"/></svg>