<svg xmlns="http://www.w3.org/2000/svg" width="24" height="24" fill="#F75F31"><path fill="#F75F31" d="M7.861 2.152a3.84 3.84 0 0 0-3.84 3.84v11.519a3.84 3.84 0 0 0 3.84 3.84h7.963c2.214 0 3.72-1.78 3.833-3.859.007-.126-.114-.218-.238-.195a3.118 3.118 0 0 1-3.607-2.274.2.2 0 0 0-.192-.152h-2.086a3.12 3.12 0 0 1 0-6.24h2.086a.2.2 0 0 0 .192-.152 3.118 3.118 0 0 1 3.607-2.275c.124.023.245-.069.238-.195-.113-2.079-1.62-3.857-3.833-3.857H7.861Z"/><path fill="#F75F31" d="m19.44 8.59 3.707 2.483.011.01a.912.912 0 0 1 0 1.337l-.01.01-3.709 2.483a.912.912 0 0 1-1.506-.515l-.003-.018.006-1.716h-4.402a.912.912 0 0 1 0-1.824h4.401l-.013-1.653.001-.01a.912.912 0 0 1 1.516-.587Z"/></svg>