<svg width="24" height="24" viewBox="0 0 24 24" fill="none" xmlns="http://www.w3.org/2000/svg">
<path d="M6.36809 18.6779H7.5967H15.6108H16.8404C17.2225 18.6779 17.5327 18.9881 17.5327 19.3702C17.5327 19.7524 17.2225 20.0625 16.8404 20.0625H6.36809C5.98594 20.0625 5.67578 19.7524 5.67578 19.3702C5.67578 18.9881 5.98594 18.6779 6.36809 18.6779Z" fill="#9C6F00"/>
<path d="M20.5117 5.94612C20.4729 5.59628 20.1766 5.33135 19.824 5.33135H17.5504C17.5818 4.81442 17.5846 4.47012 17.5846 4.39904C17.5846 4.14428 17.3788 3.9375 17.1231 3.9375H5.9538C5.83103 3.9375 5.7138 3.98643 5.62703 4.07319C5.54026 4.15905 5.49226 4.27719 5.49226 4.39996C5.49226 4.47105 5.49503 4.81535 5.52642 5.33135H3.25288C2.90026 5.33135 2.60396 5.59628 2.56519 5.94612C2.54673 6.10674 2.15626 9.89781 5.06857 11.8132C5.1858 11.8907 5.31688 11.9276 5.44796 11.9276C5.67319 11.9276 5.8938 11.8178 6.02765 11.6156C6.23719 11.2963 6.14949 10.867 5.82919 10.6566C4.23596 9.60889 3.95996 7.69719 3.92765 6.71596H5.65657C6.01565 9.60427 7.16765 14.2058 10.8443 14.7264V16.3464L8.68067 16.3468C8.47944 16.3468 8.30221 16.4769 8.24037 16.6671L7.59698 18.6757H15.6112L14.9687 16.668C14.9078 16.4769 14.7305 16.3468 14.5293 16.3468L12.2289 16.3464V14.7283C15.9138 14.215 17.064 9.60705 17.4221 6.71596H19.1492C19.1169 7.69719 18.8409 9.60889 17.2477 10.6566C16.9274 10.867 16.8397 11.2963 17.0492 11.6156C17.1831 11.8178 17.4037 11.9276 17.6289 11.9276C17.76 11.9276 17.8911 11.8907 18.0083 11.8132C20.9206 9.89781 20.5301 6.10674 20.5117 5.94612Z" fill="#DFA000"/>
<path d="M13.0062 9.14694L13.5978 8.58017C13.6948 8.48325 13.7566 8.35679 13.7705 8.23494C13.7926 8.07525 13.752 7.9174 13.6551 7.78909C13.5572 7.66079 13.4151 7.57863 13.2591 7.5574L12.4643 7.48079L12.0794 6.71371L12.0757 6.70448C12.0157 6.59463 11.9271 6.50694 11.8191 6.45063C11.5182 6.29555 11.1554 6.41279 10.9994 6.71463L10.6791 7.43371L9.82616 7.55648C9.69139 7.57309 9.56493 7.63771 9.47077 7.73463C9.35908 7.85002 9.29908 8.00325 9.30185 8.16294C9.30554 8.32355 9.37016 8.47402 9.48647 8.58479L10.0735 9.14879L9.93323 9.94725C9.912 10.0802 9.93508 10.2159 9.996 10.3239C10.0708 10.467 10.1972 10.5731 10.3514 10.6202C10.4114 10.6387 10.4714 10.6479 10.5323 10.6479C10.6283 10.6479 10.7243 10.6248 10.8102 10.5787L11.5015 10.179L12.2686 10.5787C12.3859 10.6387 12.5206 10.659 12.6443 10.6387C12.9711 10.587 13.1954 10.2777 13.1446 9.94263L13.0062 9.14694Z" fill="#9C6F00"/>
</svg>
