<svg width="20" height="20" viewBox="0 0 20 20" fill="none" xmlns="http://www.w3.org/2000/svg">
<g id="Notification">
<g id="Vector">
<path d="M8.302 16.0233C8.71859 15.9352 11.2571 15.9352 11.6737 16.0233C12.0298 16.1055 12.4149 16.2977 12.4149 16.7174C12.3942 17.1169 12.1598 17.4711 11.836 17.696C11.4161 18.0233 10.9233 18.2306 10.4082 18.3053C10.1233 18.3423 9.84331 18.3431 9.56834 18.3053C9.05236 18.2306 8.55958 18.0233 8.1405 17.6952C7.81584 17.4711 7.58145 17.1169 7.56074 16.7174C7.56074 16.2977 7.94587 16.1055 8.302 16.0233ZM10.037 1.66669C11.7705 1.66669 13.5412 2.4892 14.5931 3.85391C15.2755 4.73266 15.5886 5.61057 15.5886 6.97527V7.3303C15.5886 8.3769 15.8652 8.99379 16.4739 9.70468C16.9353 10.2284 17.0827 10.9007 17.0827 11.63C17.0827 12.3586 16.8433 13.0501 16.3638 13.6116C15.736 14.2847 14.8506 14.7145 13.9471 14.7892C12.6376 14.9008 11.3274 14.9948 9.99976 14.9948C8.6713 14.9948 7.36189 14.9386 6.05248 14.7892C5.14806 14.7145 4.2627 14.2847 3.63574 13.6116C3.1562 13.0501 2.91602 12.3586 2.91602 11.63C2.91602 10.9007 3.06427 10.2284 3.52476 9.70468C4.15254 8.99379 4.41095 8.3769 4.41095 7.3303V6.97527C4.41095 5.57364 4.76046 4.65712 5.48018 3.75991C6.55024 2.45143 8.26548 1.66669 9.96249 1.66669H10.037Z" fill="#7F7574"/>
<path d="M8.302 16.0233C8.71859 15.9352 11.2571 15.9352 11.6737 16.0233C12.0298 16.1055 12.4149 16.2977 12.4149 16.7174C12.3942 17.1169 12.1598 17.4711 11.836 17.696C11.4161 18.0233 10.9233 18.2306 10.4082 18.3053C10.1233 18.3423 9.84331 18.3431 9.56834 18.3053C9.05236 18.2306 8.55958 18.0233 8.1405 17.6952C7.81584 17.4711 7.58145 17.1169 7.56074 16.7174C7.56074 16.2977 7.94587 16.1055 8.302 16.0233ZM10.037 1.66669C11.7705 1.66669 13.5412 2.4892 14.5931 3.85391C15.2755 4.73266 15.5886 5.61057 15.5886 6.97527V7.3303C15.5886 8.3769 15.8652 8.99379 16.4739 9.70468C16.9353 10.2284 17.0827 10.9007 17.0827 11.63C17.0827 12.3586 16.8433 13.0501 16.3638 13.6116C15.736 14.2847 14.8506 14.7145 13.9471 14.7892C12.6376 14.9008 11.3274 14.9948 9.99976 14.9948C8.6713 14.9948 7.36189 14.9386 6.05248 14.7892C5.14806 14.7145 4.2627 14.2847 3.63574 13.6116C3.1562 13.0501 2.91602 12.3586 2.91602 11.63C2.91602 10.9007 3.06427 10.2284 3.52476 9.70468C4.15254 8.99379 4.41095 8.3769 4.41095 7.3303V6.97527C4.41095 5.57364 4.76046 4.65712 5.48018 3.75991C6.55024 2.45143 8.26548 1.66669 9.96249 1.66669H10.037Z" fill="black" fill-opacity="0.2"/>
</g>
</g>
</svg>
