<svg width="24" height="24" viewBox="0 0 24 24" fill="none" xmlns="http://www.w3.org/2000/svg">
<path fill-rule="evenodd" clip-rule="evenodd" d="M9.26367 3H7.00267C5.25312 3 3.81268 4.34276 3.65413 6.05212C3.63878 6.21754 3.77467 6.353 3.9408 6.353H7.67967C8.09367 6.353 8.42967 6.688 8.42967 7.103C8.42967 7.517 8.09367 7.853 7.67967 7.853H3.93867C3.77298 7.853 3.63867 7.98731 3.63867 8.153V9.652C3.63867 9.81769 3.77298 9.952 3.93867 9.952H5.47567C5.88967 9.952 6.22567 10.288 6.22567 10.702C6.22567 11.116 5.88967 11.452 5.47567 11.452H3.93867C3.77298 11.452 3.63867 11.5863 3.63867 11.752V13.2111C3.63867 13.3756 3.77109 13.5094 3.93555 13.5111L7.68767 13.55C8.10167 13.554 8.43367 13.894 8.42967 14.308C8.42567 14.719 8.09067 15.05 7.67967 15.05H7.67167L3.94179 15.0112C3.77489 15.0094 3.63867 15.1442 3.63867 15.3111V16.851C3.63867 17.0167 3.77298 17.151 3.93867 17.151H6.57767C6.99267 17.151 7.32767 17.487 7.32767 17.901C7.32767 18.315 6.99267 18.651 6.57767 18.651H3.94197C3.77577 18.651 3.63986 18.7866 3.65532 18.952C3.81484 20.6593 5.25423 22 7.00267 22H9.26367C11.1177 22 12.6267 20.491 12.6267 18.636V6.364C12.6267 4.509 11.1177 3 9.26367 3Z" fill="#35A45F"/>
<path d="M14.8711 6.55595C14.8711 4.66495 16.4101 3.12695 18.3021 3.12695C20.1941 3.12695 21.7321 4.66495 21.7321 6.55595V7.77895C21.7321 7.94464 21.5978 8.07895 21.4321 8.07895H15.1711C15.0054 8.07895 14.8711 7.94464 14.8711 7.77895V6.55595Z" fill="#006D37"/>
<path d="M17.1673 21.4136C15.7083 20.2336 14.8713 18.4806 14.8713 16.6046V9.87855C14.8713 9.71287 15.0057 9.57855 15.1713 9.57855H21.4313C21.597 9.57855 21.7313 9.71287 21.7313 9.87855V16.6046C21.7313 18.4806 20.8943 20.2336 19.4343 21.4136C19.1063 21.6796 18.7043 21.8126 18.3023 21.8126C17.8983 21.8126 17.4963 21.6796 17.1673 21.4136Z" fill="#006D37"/>
</svg>
