<svg xmlns="http://www.w3.org/2000/svg" width="24" height="24" fill="none"><path fill="#5E5E5E" fill-rule="evenodd" d="M11.538 15.013a6.09 6.09 0 0 0 6.083-6.084 6.09 6.09 0 0 0-6.083-6.084 6.09 6.09 0 0 0-6.083 6.084 6.09 6.09 0 0 0 6.083 6.084Z" clip-rule="evenodd"/><path fill="#5E5E5E" fill-rule="evenodd" d="M7.28 14.75c-.126-.094-.311-.006-.31.15l.013 5.028c0 .446.233.844.621 1.064a1.222 1.222 0 0 0 1.236-.016l2.553-1.531a.303.303 0 0 1 .31 0l2.548 1.528c.385.231.847.237 1.235.016.389-.22.622-.62.622-1.066V14.9c0-.157-.185-.244-.31-.15a7.08 7.08 0 0 1-4.26 1.42 7.08 7.08 0 0 1-4.259-1.42Z" clip-rule="evenodd"/></svg>