<svg width="80" height="88" viewBox="0 0 80 88" fill="none" xmlns="http://www.w3.org/2000/svg">
<path d="M25.1327 51.7119H22.6599C23.0947 51.7391 23.448 52.0927 23.448 52.528V61.7496C23.448 61.9944 23.2577 62.1849 23.0132 62.1849H21.7904C21.5458 62.1849 21.3556 61.9944 21.3556 61.7496V51.7119H18.6383C18.4209 51.7119 18.2307 51.5215 18.2307 51.2767V50.0526C18.2307 49.8349 18.3938 49.6445 18.6112 49.6173H25.1327C25.3772 49.6445 25.5403 49.8349 25.5403 50.0526V51.2767C25.5403 51.5215 25.3501 51.7119 25.1327 51.7119Z" fill="#B72026"/>
<path d="M12.5515 81.7978H5.54087C5.54087 82.6139 6.19303 83.2668 7.00822 83.2668H12.1439V84.6269C12.1439 85.0893 12.5244 85.4702 12.9863 85.4702H15.4319C15.6493 85.4702 15.8123 85.6334 15.8123 85.851V87.3471C15.8123 87.6736 16.084 87.9456 16.4101 87.9456H20.9208C21.1654 87.9456 21.3828 87.728 21.3828 87.4832V85.1165C21.3828 84.7629 21.111 84.4909 20.7578 84.4909H19.535C19.1818 84.4909 18.8828 84.7901 18.8828 85.1437V86.2318C18.8828 86.0142 19.0459 85.851 19.2633 85.851H19.8067C19.9426 85.851 20.0241 85.9598 20.0241 86.0686V86.3951C20.0241 86.5311 19.9154 86.6127 19.8067 86.6127H17.5242C17.3068 86.6127 17.1166 86.4223 17.1166 86.2046V84.6813C17.1166 84.2461 16.7633 83.9196 16.3558 83.9196H13.8015C13.6384 83.9196 13.4754 83.7836 13.4754 83.5932V82.7227C13.4754 82.2059 13.0678 81.7978 12.5515 81.7978Z" fill="#B72026"/>
<path d="M67.4411 81.7978H74.4518C74.4518 82.6139 73.7996 83.294 72.9573 83.2668H67.8487V84.6269C67.8487 85.0893 67.4683 85.4702 67.0064 85.4702H64.5608C64.3434 85.4702 64.1804 85.6334 64.1804 85.851V87.3471C64.1804 87.6736 63.9086 87.9456 63.5826 87.9456H59.0718C58.8273 87.9456 58.6099 87.728 58.6099 87.4832V85.1165C58.6099 84.7629 58.8816 84.4909 59.2349 84.4909H60.4577C60.8109 84.4909 61.1098 84.7901 61.1098 85.1437V86.2318C61.1098 86.0142 60.9468 85.851 60.7294 85.851H60.1859C60.0501 85.851 59.9685 85.9598 59.9685 86.0686V86.3951C59.9685 86.5311 60.0772 86.6127 60.1859 86.6127H62.4685C62.6859 86.6127 62.8761 86.4223 62.8761 86.2046V84.6813C62.8761 84.2461 63.2293 83.9196 63.6369 83.9196H66.1912C66.3542 83.9196 66.5173 83.7836 66.5173 83.5932V82.7227C66.5173 82.2059 66.9248 81.7978 67.4411 81.7978Z" fill="#B72026"/>
<path d="M28.0674 84.0828H26.3826C26.5457 84.0828 26.6815 84.2189 26.6815 84.3821V85.4702C26.6815 85.5518 26.7631 85.6334 26.8446 85.6334H27.687C27.7685 85.6334 27.85 85.715 27.85 85.7966V86.259C27.85 86.3407 27.7685 86.4223 27.687 86.4223H26.8446C26.7631 86.4223 26.6815 86.5039 26.6815 86.5855V87.0479C26.6815 87.1295 26.7631 87.2111 26.8446 87.2111H28.0674C28.1489 87.2111 28.2304 87.2927 28.2304 87.3743V87.8368C28.2304 87.9184 28.1489 88 28.0674 88H26.0837C26.0022 88 25.9207 87.9184 25.9207 87.8368V83.5116C25.9207 83.43 26.0022 83.3484 26.0837 83.3484H28.0674C28.1489 83.3484 28.2304 83.43 28.2304 83.5116V83.974C28.2304 84.0012 28.1489 84.0828 28.0674 84.0828Z" fill="#B72026"/>
<path fill-rule="evenodd" clip-rule="evenodd" d="M29.3717 83.294V87.9456H31.0836C31.4096 87.9184 31.6814 87.6464 31.6814 87.32V83.9196C31.6814 83.5932 31.4096 83.3212 31.0836 83.294H29.3717ZM30.7303 87.1295C30.676 87.1567 30.6488 87.1567 30.5945 87.1567H30.3227C30.2412 87.1567 30.1597 87.0751 30.1597 86.9935V84.3549C30.1597 84.1917 30.051 84.0557 29.888 84.0557H30.6216C30.6488 84.0557 30.7031 84.0557 30.7303 84.0829C30.8118 84.1101 30.8662 84.1645 30.8934 84.2461C30.9205 84.2733 30.9205 84.3005 30.9205 84.3549V86.8303C30.9205 86.8847 30.9205 86.9391 30.8934 86.9663C30.8662 87.0479 30.8118 87.1023 30.7303 87.1295Z" fill="#B72026"/>
<path d="M32.7683 83.4572C32.7683 83.3756 32.8499 83.294 32.9314 83.294H33.3933C33.4748 83.294 33.5564 83.3756 33.5564 83.4572V86.9935C33.5564 87.0751 33.6379 87.1567 33.7194 87.1567H34.3172V83.4572C34.3172 83.3756 34.3987 83.294 34.4802 83.294H34.9422C35.0237 83.294 35.1052 83.3756 35.1052 83.4572V87.9456H33.3661C33.0401 87.9184 32.7683 87.6464 32.7683 87.32V83.4572Z" fill="#B72026"/>
<path d="M37.8224 84.6813C37.8224 84.7629 37.904 84.8445 37.9855 84.8445V84.8717H38.4746C38.5561 84.8717 38.6376 84.7901 38.6376 84.7085V83.5388C38.6105 83.43 38.5018 83.3212 38.3659 83.3212H36.4638C36.3823 83.3212 36.3008 83.4028 36.3008 83.4844V87.8096C36.3008 87.8912 36.3823 87.9728 36.4638 87.9728H38.3659C38.5018 87.9728 38.6105 87.8912 38.6376 87.7552V86.5855C38.6376 86.5039 38.5561 86.4223 38.4746 86.4223H38.0127C37.9311 86.4223 37.8496 86.5039 37.8496 86.5855V87.0207C37.8496 87.1023 37.7681 87.1839 37.6866 87.1839H37.2246C37.1431 87.1839 37.0616 87.1023 37.0616 87.0207V84.3821C37.0616 84.2189 36.9257 84.0829 36.7627 84.0829H37.6594C37.7409 84.0829 37.8224 84.1645 37.8224 84.2461V84.6813Z" fill="#B72026"/>
<path fill-rule="evenodd" clip-rule="evenodd" d="M41.7082 83.294C41.8713 83.294 42.0071 83.43 42.0071 83.5932V87.7552C42.0071 87.864 41.9256 87.9184 41.8441 87.9184H41.3822C41.3006 87.9184 41.2191 87.8368 41.2191 87.7552V86.5311C41.2191 86.4495 41.1376 86.3679 41.0561 86.3679H40.4583V87.7552C40.4583 87.8368 40.3768 87.9184 40.2952 87.9184H39.8605C39.7789 87.9184 39.6974 87.8368 39.6974 87.7552V83.5932C39.6974 83.43 39.8333 83.294 39.9963 83.294H41.7082ZM41.2191 84.2461C41.2191 84.1645 41.1376 84.0829 41.0561 84.0829H40.1594C40.3224 84.0829 40.4583 84.2189 40.4583 84.3821V85.4702C40.4583 85.5518 40.5398 85.6334 40.6213 85.6334H41.0833C41.1648 85.6334 41.2463 85.579 41.2463 85.4702V84.2461H41.2191Z" fill="#B72026"/>
<path d="M45.431 83.9196V83.4572C45.431 83.3756 45.3494 83.3212 45.2951 83.294H43.2571C43.1756 83.294 43.1213 83.3756 43.1213 83.4572V83.9196C43.1213 84.0013 43.1756 84.0829 43.2571 84.0829H43.8821V87.7824C43.8821 87.864 43.9636 87.9456 44.0451 87.9456H44.5071C44.5886 87.9456 44.6701 87.864 44.6701 87.7824V84.3821C44.6701 84.2189 44.5343 84.0829 44.3712 84.0829H45.2951C45.3494 84.0829 45.431 84.0013 45.431 83.9196Z" fill="#B72026"/>
<path d="M47.2515 87.7824C47.2515 87.864 47.17 87.9456 47.0885 87.9456H46.6266C46.545 87.9456 46.4635 87.864 46.4635 87.7824V83.4572C46.4635 83.3756 46.545 83.294 46.6266 83.294H47.0885C47.17 83.294 47.2515 83.3756 47.2515 83.4572V87.7824Z" fill="#B72026"/>
<path fill-rule="evenodd" clip-rule="evenodd" d="M48.3385 87.4287C48.3928 87.6736 48.583 87.8368 48.8004 87.8912C48.8276 87.9184 48.8819 87.9184 48.9091 87.9184C49.2895 87.9456 49.6428 87.9456 50.0232 87.9184C50.3493 87.8912 50.621 87.6192 50.621 87.2927V83.9196C50.621 83.5932 50.3493 83.3212 50.0232 83.294C49.6699 83.2668 49.2895 83.2668 48.9091 83.294C48.5558 83.3212 48.3113 83.5932 48.3113 83.9196V87.2927C48.3113 87.304 48.3159 87.3199 48.3214 87.3386C48.3291 87.365 48.3385 87.3969 48.3385 87.4287ZM49.8601 86.9663C49.833 87.0479 49.7786 87.1023 49.6971 87.1295C49.6428 87.1567 49.6156 87.1567 49.5884 87.1567C49.4525 87.1839 49.2895 87.1839 49.1808 87.0751C49.1265 86.9935 49.0993 86.9391 49.0993 86.8575V84.3821C49.0993 84.2189 48.9906 84.0828 48.8276 84.0828H49.5884C49.6156 84.0828 49.6699 84.0828 49.6971 84.1101C49.7786 84.1373 49.833 84.1917 49.8601 84.2733C49.8873 84.3005 49.8873 84.3277 49.8873 84.3821V86.8575C49.8873 86.8847 49.8873 86.9391 49.8601 86.9663Z" fill="#B72026"/>
<path d="M54.072 83.9196V87.7824C54.072 87.864 53.9905 87.9456 53.9089 87.9456H53.447C53.3655 87.9456 53.284 87.864 53.284 87.7824V84.2461C53.284 84.1645 53.2024 84.0829 53.1209 84.0829H52.2242C52.3873 84.0829 52.5231 84.2189 52.5231 84.3821V87.7824C52.5231 87.864 52.4416 87.9456 52.3601 87.9456H51.8981C51.8166 87.9456 51.7351 87.864 51.7351 87.7824V83.294H53.4742C53.8003 83.3212 54.072 83.5932 54.072 83.9196Z" fill="#B72026"/>
<path fill-rule="evenodd" clip-rule="evenodd" d="M34.0454 62.2121C34.4802 62.1849 34.8335 61.8312 34.8335 61.396V58.7029C34.8335 57.7781 34.127 57.0436 33.2303 56.9892C34.1541 56.9348 34.8335 56.2003 34.8335 55.2754V51.3039C34.8335 50.4062 34.127 49.6445 33.2303 49.6173H28.5565V62.2121H30.214C30.4586 62.2121 30.6488 62.0216 30.6488 61.7768V58.8118C30.6488 58.3765 30.2956 58.0229 29.8608 57.9957H32.3335C32.5509 58.0229 32.7411 58.1861 32.7411 58.4309V61.7496C32.7411 61.9944 32.9314 62.1849 33.1759 62.1849H34.0454V62.2121ZM32.7411 55.4658C32.7411 55.7107 32.5781 55.9011 32.3335 55.9011H31.0564C30.8119 55.9011 30.6488 55.7107 30.6488 55.4658V52.528C30.6488 52.0927 30.2956 51.7391 29.8608 51.7119H31.9531C32.3607 51.7391 32.7411 52.0927 32.7411 52.528V55.4658Z" fill="#B72026"/>
<path fill-rule="evenodd" clip-rule="evenodd" d="M44.0994 50.4334V61.7224C44.0994 61.9944 43.9092 62.1849 43.6375 62.1849H42.4147C42.1701 62.1849 41.9799 61.9944 41.9799 61.7496V58.4309C41.9799 58.1861 41.7897 57.9957 41.5452 57.9957H39.8876V61.7496C39.8876 61.9944 39.6974 62.1849 39.4528 62.1849H38.23C37.9855 62.1849 37.7953 61.9944 37.7953 61.7224V50.4334C37.7953 49.9981 38.1485 49.6445 38.5833 49.6173H43.3114C43.7462 49.6445 44.0994 49.9981 44.0994 50.4334ZM41.5723 55.9011C41.8169 55.9011 42.0071 55.7107 42.0071 55.4658V52.1743C42.0071 51.9295 41.8169 51.7391 41.5723 51.7391H39.1268C39.5615 51.7391 39.9148 52.1199 39.9148 52.5552V55.4658C39.9148 55.7107 40.105 55.9011 40.3495 55.9011H41.5723Z" fill="#B72026"/>
<path d="M53.6101 61.7496V51.3039C53.6101 50.4062 52.9036 49.6445 52.0069 49.6173H47.3331V61.7496C47.3331 61.9944 47.5233 62.1849 47.7679 62.1849H48.9907C49.2352 62.1849 49.4254 61.9944 49.4254 61.7496V52.528C49.4254 52.0927 49.0722 51.7391 48.6374 51.7119H51.083C51.3275 51.7119 51.5178 51.9023 51.5178 52.1471V61.7496C51.5178 61.9944 51.708 62.1849 51.9525 62.1849H53.1753C53.3927 62.1849 53.6101 61.9944 53.6101 61.7496Z" fill="#B72026"/>
<path d="M58.6914 55.9011H61.1913C61.4358 55.9011 61.626 56.0915 61.626 56.3363V61.3688C61.626 61.804 61.2728 62.1577 60.838 62.1849H55.7838C55.5393 62.1849 55.3491 61.9944 55.3491 61.7496V50.0526C55.3491 49.8077 55.5393 49.6173 55.7838 49.6173H60.9467C61.3815 49.6445 61.7347 49.9981 61.7347 50.4334V53.3713C61.7347 53.6161 61.5445 53.8065 61.3 53.8065H60.0772C59.8326 53.8065 59.6424 53.6161 59.6424 53.3713V52.1471C59.6424 51.9023 59.4522 51.7119 59.2076 51.7119H56.6534C57.0881 51.7391 57.4414 52.0927 57.4414 52.528V59.655C57.4414 59.8999 57.6316 60.0903 57.8762 60.0903H59.0989C59.3435 60.0903 59.5337 59.8999 59.5337 59.655V58.4309C59.5337 58.1861 59.3435 57.9957 59.0989 57.9957H58.6914C58.4468 57.9957 58.2566 57.8053 58.2566 57.5604V56.3363C58.2566 56.0915 58.4468 55.9011 58.6914 55.9011Z" fill="#B72026"/>
<path d="M17.9046 65.7212H13.2309V76.6294H8.3669C8.3669 76.6294 6.70934 76.3846 6.79086 74.8884C7.06259 75.5141 7.6604 75.9493 8.3669 75.9493C9.31796 75.9493 10.0788 75.1876 10.0788 74.2356C10.0788 73.2835 9.31796 72.5218 8.3669 72.5218H8.17669C6.2474 72.5218 5.16048 74.1812 5.59525 76.0581C5.59525 76.0853 5.59525 76.1125 5.62242 76.1397C6.60065 78.588 10.1875 78.3431 10.1875 78.3431H14.8884C15.133 78.3431 15.3232 78.1527 15.3232 77.9079V68.6862C15.3232 68.251 14.97 67.8974 14.5352 67.8702H16.9808C17.2253 67.8702 17.4155 68.0606 17.4155 68.3054V77.9079C17.4155 78.1527 17.6057 78.3431 17.8503 78.3431H19.0731C19.3176 78.3431 19.5079 78.1527 19.5079 77.9079V67.4621C19.5079 66.5101 18.8285 65.7484 17.9046 65.7212Z" fill="#B72026"/>
<path d="M28.1761 65.7212C28.6109 65.7484 28.9641 66.102 28.9641 66.5373V69.4751C28.9641 69.7199 28.7739 69.9104 28.5293 69.9104H27.3065C27.062 69.9104 26.8718 69.7199 26.8718 69.4751V68.251C26.8718 68.0062 26.6816 67.8158 26.437 67.8158H23.9914C24.4262 67.843 24.7795 68.1966 24.7795 68.6318V75.7589C24.7795 76.0037 24.9697 76.1941 25.2142 76.1941H26.437C26.6816 76.1941 26.8718 76.0037 26.8718 75.7589V74.5348C26.8718 74.29 26.6816 74.0995 26.437 74.0995H26.0294C25.7849 74.0995 25.5946 73.9091 25.5946 73.6643V72.4402C25.5946 72.1954 25.7849 72.005 26.0294 72.005H28.5293C28.7739 72.005 28.9641 72.1954 28.9641 72.4402V77.4726C28.9641 77.9079 28.6109 78.2615 28.1761 78.2887H23.1219C22.8773 78.2887 22.6871 78.0983 22.6871 77.8535V66.1564C22.6871 65.9116 22.8773 65.7212 23.1219 65.7212H28.1761Z" fill="#B72026"/>
<path d="M38.0671 65.7484H36.8443C36.5997 65.7484 36.4095 65.9388 36.4095 66.1836V76.2213H34.7519C34.5074 76.2213 34.3172 76.0309 34.3172 75.7861V66.1836C34.3172 65.9388 34.127 65.7484 33.8824 65.7484H32.6596C32.4151 65.7484 32.2249 65.9388 32.2249 66.1836V76.6294C32.2249 77.5271 32.9314 78.2887 33.8281 78.3159H38.5018V66.1564C38.5018 65.9388 38.3116 65.7484 38.0671 65.7484Z" fill="#B72026"/>
<path d="M46.382 65.7212H47.6047C47.8221 65.7212 48.0123 65.9116 48.0939 66.1564V71.3793C48.0939 72.3042 47.3874 73.0387 46.4906 73.0931H45.2135C45.6483 73.0931 46.0015 73.4739 46.0015 73.9091V77.8807C46.0015 78.1255 45.8113 78.3159 45.5668 78.3159H44.344C44.0994 78.3159 43.9092 78.1255 43.9092 77.8807V73.0931H43.4201C42.5234 73.0387 41.8169 72.3042 41.8169 71.3793V66.1564C41.8169 65.9116 41.9799 65.7212 42.2245 65.7212H43.4473C43.6918 65.7212 43.882 65.9116 43.882 66.1564V71.5969C43.882 71.8417 44.0451 72.0322 44.2896 72.0322H45.5396C45.7841 72.0322 45.9472 71.8417 45.9472 71.5969V66.1564C45.9472 65.9116 46.1374 65.7212 46.382 65.7212Z" fill="#B72026"/>
<path d="M56.8437 65.7212H51.4362C51.1917 65.7212 51.0015 65.9116 51.0015 66.1564V77.8535C51.0015 78.0983 51.1917 78.2887 51.4362 78.2887H56.8437C57.0882 78.2887 57.2784 78.0983 57.2784 77.8535V76.6294C57.2784 76.3846 57.0882 76.1941 56.8437 76.1941H53.5286C53.284 76.1941 53.0938 76.0037 53.0938 75.7589V74.5348C53.0938 74.29 53.284 74.0995 53.5286 74.0995H55.8111C56.0557 74.0995 56.2459 73.9091 56.2459 73.6643V72.4402C56.2459 72.1954 56.0557 72.005 55.8111 72.005H53.5286C53.284 72.005 53.121 71.8145 53.121 71.5697V68.6318C53.121 68.1966 52.7677 67.843 52.333 67.8158H56.8708C57.0882 67.8158 57.2784 67.6254 57.2784 67.3805V66.1564C57.2784 65.9116 57.0882 65.7212 56.8437 65.7212Z" fill="#B72026"/>
<path d="M71.6801 72.4946H71.7888C73.7181 72.4946 74.805 74.154 74.4246 76.0309C74.3974 76.0581 74.3974 76.0853 74.3974 76.1125C73.4192 78.5607 69.8324 78.3159 69.8324 78.3159H65.1858C64.9412 78.3159 64.751 78.1255 64.751 77.8807V68.2782C64.751 68.0334 64.5608 67.843 64.3162 67.843H61.8706C62.3054 67.8702 62.6587 68.2238 62.6587 68.659V77.8807C62.6587 78.1255 62.4685 78.3159 62.2239 78.3159H61.0011C60.7566 78.3159 60.5663 78.1255 60.5663 77.8807V65.7212H65.2401C66.1368 65.7484 66.8433 66.5101 66.8433 67.4077V76.6022H71.5986C71.5986 76.6022 73.2562 76.3574 73.1746 74.8612C72.9301 75.4869 72.3051 75.9221 71.5986 75.9221C70.6476 75.9221 69.8595 75.1332 69.8867 74.154C69.9139 73.2291 70.7291 72.4946 71.6801 72.4946Z" fill="#B72026"/>
<path d="M43.6912 29.4596C43.5135 29.5995 43.331 29.7433 43.1485 29.8955C36.9172 34.7443 27.7346 36.5628 27.097 36.689C27.0746 36.6934 27.062 36.6961 27.062 36.6961L25.4044 33.4318C33.132 32.937 36.3254 31.8934 39.5169 30.8504C39.6585 30.8041 39.8001 30.7578 39.942 30.7116C38.5562 30.8476 36.8715 30.6028 35.0781 29.4603C31.9532 27.4745 31.8173 23.8294 32.3608 20.9187C32.4014 20.6133 32.4726 20.3231 32.5399 20.0482C32.5626 19.9558 32.5848 19.8651 32.6053 19.7762L33.5564 16.9199C33.5564 16.9199 33.3933 16.8655 33.2303 16.7839C30.5402 15.587 27.7413 13.9549 25.0784 11.017C24.861 7.6439 25.1055 4.57002 25.3501 2.28501L25.5675 0C27.1979 7.34467 32.2792 12.894 39.1812 14.9614C39.0997 15.2062 38.7192 16.3215 37.2247 20.6195C37.2247 20.6195 36.7628 22.0068 36.8987 23.775C36.9802 24.3734 37.3062 26.0872 38.9638 27.6105C41.0178 29.5044 43.4751 29.3263 44.063 29.1637C43.9426 29.2616 43.8181 29.3596 43.6912 29.4596Z" fill="#B72026"/>
<path d="M44.063 29.1637C44.0661 29.1628 44.0693 29.1619 44.0723 29.1611L44.0995 29.1339C44.0874 29.1438 44.0752 29.1537 44.063 29.1637Z" fill="#B72026"/>
<path fill-rule="evenodd" clip-rule="evenodd" d="M58.474 10.3097C58.474 10.3097 57.6045 11.2346 56.0013 12.3227V12.2955C55.8111 12.4315 55.6208 12.5675 55.4306 12.6764C54.1807 13.4924 52.5231 14.3357 50.5667 14.9614C48.7189 15.5326 46.7624 15.7774 44.7516 15.7774C43.0669 15.7774 41.6539 15.587 40.0778 15.179L38.2029 20.6195L45.7842 20.5107C47.958 20.293 47.958 22.5781 47.958 22.5781C47.8493 32.9966 28.6923 37.5938 28.6923 37.5938L30.3227 41.0213C50.784 35.8801 49.6971 19.6402 49.3439 18.9329C50.621 18.3889 55.3763 16.1311 58.474 10.3097ZM47.9852 17.5456C47.9037 18.0624 47.4417 18.4161 46.9255 18.3345C46.4092 18.2529 46.0559 17.7904 46.1374 17.2736C46.219 16.7567 46.6809 16.4031 47.1972 16.4847C47.7135 16.5391 48.0667 17.0287 47.9852 17.5456Z" fill="#B72026"/>
<path d="M24.9968 12.3499C24.9968 12.3499 27.8228 15.5326 32.4422 17.4096C32.2792 17.8176 31.8988 18.9873 31.7629 19.4226C26.8718 18.008 24.9968 16.4575 24.9968 16.4575V12.3499Z" fill="#B72026"/>
<path d="M32.9042 28.9434C32.9042 28.9434 34.0998 30.3852 35.9475 30.9836C30.4042 32.3438 23.5294 32.2621 23.5294 32.2349C21.41 27.0665 21.4915 27.2297 21.4915 27.2297C25.8151 28.3181 30.6799 28.747 32.5393 28.911C32.6782 28.9232 32.8003 28.934 32.9042 28.9434Z" fill="#B72026"/>
</svg>
