<svg xmlns="http://www.w3.org/2000/svg" viewBox="0 0 88 88" role="img" aria-labelledby="title desc">
  <title id="title">Avatar học sinh</title>
  <desc id="desc">Avatar minh họa học sinh đội khăn đỏ.</desc>
  <circle cx="44" cy="44" r="44" fill="#ffe7dc"/>
  <circle cx="44" cy="44" r="39" fill="#ffd1b4"/>
  <path d="M18 35c2-14 13-23 28-23 15 0 26 9 28 23-4-3-8-5-13-5-4 0-9 1-14 4-5-3-10-4-14-4-5 0-10 2-15 5Z" fill="#c52e2f"/>
  <circle cx="44" cy="43" r="18" fill="#ffddb9"/>
  <circle cx="37" cy="42" r="2.2" fill="#4d362f"/>
  <circle cx="51" cy="42" r="2.2" fill="#4d362f"/>
  <path d="M38 53c4 3 8 3 12 0" fill="none" stroke="#8c5341" stroke-width="2.5" stroke-linecap="round"/>
  <path d="M28 66c5-7 10-10 16-10s11 3 16 10v10H28Z" fill="#f8f8f8"/>
  <path d="M39 56l5 7 5-7 7 5-12 10-12-10Z" fill="#cf353a"/>
</svg>
