<svg xmlns="http://www.w3.org/2000/svg" viewBox="0 0 220 300" role="img" aria-labelledby="title desc">
  <title id="title">Bìa sách Luyện tiếng Việt 365</title>
  <desc id="desc">Minh họa bìa sách dùng cho thẻ quảng bá.</desc>
  <rect x="14" y="10" width="192" height="280" rx="20" fill="#fff" stroke="#eadfd2" stroke-width="4"/>
  <path d="M24 40h170c0 40 0 64-30 64H24Z" fill="#f5b800"/>
  <path d="M194 40v52c-16-3-28-17-28-32 0-9 3-15 9-20Z" fill="#fff5c2"/>
  <text x="48" y="74" font-size="20" font-weight="900" font-family="Trebuchet MS, Segoe UI, sans-serif" fill="#ff8b00">KHÓA</text>
  <text x="46" y="98" font-size="20" font-weight="900" font-family="Trebuchet MS, Segoe UI, sans-serif" fill="#ff8b00">LUYỆN</text>
  <text x="45" y="122" font-size="20" font-weight="900" font-family="Trebuchet MS, Segoe UI, sans-serif" fill="#ff8b00">ĐỀ</text>
  <text x="110" y="146" text-anchor="middle" font-size="30" font-weight="900" font-family="Trebuchet MS, Segoe UI, sans-serif" fill="#f26b00">LUYỆN TIẾNG VIỆT</text>
  <text x="110" y="208" text-anchor="middle" font-size="70" font-weight="900" font-family="Trebuchet MS, Segoe UI, sans-serif" fill="#ffa700">365</text>
  <path d="M36 228c56 22 104 22 148 0" fill="none" stroke="#f5b800" stroke-width="5" stroke-linecap="round"/>
  <g transform="translate(146 212)">
    <circle cx="32" cy="42" r="19" fill="#ffcf87"/>
    <rect x="16" y="58" width="34" height="56" rx="12" fill="#ffb125"/>
    <path d="M8 82c6-18 16-25 29-25s23 7 29 25" fill="none" stroke="#f26b00" stroke-width="7" stroke-linecap="round"/>
    <circle cx="25" cy="40" r="3" fill="#3f2e1b"/>
    <circle cx="40" cy="40" r="3" fill="#3f2e1b"/>
    <path d="M25 49c5 4 10 4 15 0" fill="none" stroke="#8b5b36" stroke-width="2.5" stroke-linecap="round"/>
  </g>
  <g fill="#e58a00">
    <circle cx="52" cy="240" r="3"/>
    <circle cx="40" cy="258" r="3"/>
    <circle cx="70" cy="262" r="3"/>
    <circle cx="84" cy="242" r="3"/>
  </g>
</svg>
