<svg xmlns="http://www.w3.org/2000/svg" viewBox="0 0 160 190" role="img" aria-labelledby="title desc">
  <title id="title">Logo Trang Nguyen Education</title>
  <desc id="desc">Biểu tượng dạng chim đỏ và chữ Trang Nguyen Education.</desc>
  <rect width="160" height="190" rx="24" fill="#fff7f4"/>
  <rect x="1.5" y="1.5" width="157" height="187" rx="22.5" fill="none" stroke="#efc7c4" stroke-width="3"/>
  <path d="M80 24c7 10 17 18 30 23-13 3-22 8-28 15 2-10 0-18-5-24-5 7-8 15-8 24-6-7-15-12-27-15 13-5 23-13 30-23 1 5 4 8 8 10 4-2 7-5 8-10Z" fill="#c42424"/>
  <path d="M47 71c16 6 29 8 38 8s22-2 38-8c-8 14-17 22-27 25l12 7-9 8c-5-4-11-6-19-6s-14 2-19 6l-9-8 12-7c-10-3-19-11-27-25Z" fill="#c42424"/>
  <text x="80" y="126" text-anchor="middle" font-size="18" font-weight="900" font-family="Trebuchet MS, Segoe UI, sans-serif" fill="#c42424">TRẠNG</text>
  <text x="80" y="149" text-anchor="middle" font-size="18" font-weight="900" font-family="Trebuchet MS, Segoe UI, sans-serif" fill="#c42424">NGUYÊN</text>
  <text x="80" y="169" text-anchor="middle" font-size="10" font-weight="700" font-family="Trebuchet MS, Segoe UI, sans-serif" fill="#c42424">EDUCATION</text>
</svg>
