<svg width="21" height="20" viewBox="0 0 21 20" fill="none" xmlns="http://www.w3.org/2000/svg">
<path fill-rule="evenodd" clip-rule="evenodd" d="M11.6779 10.0002L16.0887 5.58936C16.4145 5.26353 16.4145 4.73686 16.0887 4.41103C15.7629 4.0852 15.2362 4.0852 14.9104 4.41103L10.4995 8.82182L6.08872 4.41103C5.76289 4.0852 5.23622 4.0852 4.91039 4.41103C4.58456 4.73686 4.58456 5.26353 4.91039 5.58936L9.32122 10.0002L4.91039 14.4111C4.58456 14.7368 4.58456 15.2635 4.91039 15.5893C5.07289 15.7518 5.28622 15.8335 5.49956 15.8335C5.71289 15.8335 5.92622 15.7518 6.08872 15.5893L10.4995 11.1786L14.9104 15.5893C15.0729 15.7518 15.2862 15.8335 15.4995 15.8335C15.7129 15.8335 15.9262 15.7518 16.0887 15.5893C16.4145 15.2635 16.4145 14.7368 16.0887 14.4111L11.6779 10.0002Z" fill="#B72026"/>
</svg>
